# xmcd CD database file
#
# Track frame offsets:
#	150
#	23212
#	46467
#	69530
#
# Disc length: 1235 seconds
#
# Revision: 1
# Processed by: cddbd v1.5PL3 Copyright (c) Steve Scherf et al.
# Submitted via: CDex 1.51
#
DISCID=3004d104
DTITLE=片瀬那奈 - Shine
DYEAR=2003
DGENRE=JPop
TTITLE0=Shine
TTITLE1=REVENGE 〜未来への誓い〜
TTITLE2=Shine (INSTRUMENTAL)
TTITLE3=REVENGE 〜未来への誓い〜 (Instrumental)
EXTD=YEAR: 2003
EXTT0=
EXTT1=
EXTT2=
EXTT3=
PLAYORDER=
